:FULLY-SPECIFIED
:DEGREES
94
root -0.567874014377594 -0.567874014377594 -0.567874014377594 -0.5678755879732001 -0.5678755879732001 -0.5678755879732001
lhipjoint -9.671654586443837e-08 -1.5341245206083327e-07 1.0672170578144923e-06
lfemur -15.780971077301455 -3.6214743003070113 -14.230055390392293
ltibia 19.62856860847867 -1.1832257797103155e-06 3.6210884759499126e-07
lfoot -16.3540290713074 -1.7860112202727683e-07 13.919543037892465
ltoes -51.863907651089605 -6.525539968848705e-07 4.5868850238593945e-07
rhipjoint 1.1005675908711953e-07 6.870210827458292e-07 -1.494104084495789e-06
rfemur -6.8324439862125015 5.979981309394727 10.506891099288016
rtibia 0.9936561338968666 4.4553795200002333e-08 1.001225255395053e-08
rfoot -14.670452327696376 3.1055027509784605e-07 -16.957693142984176
rtoes -4.457094584405181 -3.398533614891057e-07 -5.236709494161071e-07
lowerback 24.236113477279016 0.7429059089222411 -1.692589071499154
upperback 2.177819263793494 0.5955515144900918 0.9972077255435674
thorax -11.39499669140268 0.40251684156932366 1.9345695470228947
lowerneck -11.457395592112624 -2.029057957114028 -1.9248847656666397
upperneck 23.5797988923852 -3.0151462414105206 2.3060364286666197
head 9.370881229926802 -1.331763944747426 0.7745436119620046
lclavicle -1.4085775951116125e-07 5.4855408257763046e-08 -1.0938974842598547e-06
lhumerus 45.81740414116036 34.94055669925225 45.90321180770323
lradius 23.735807243217458 -1.8019314994530528e-06 1.1419467599436603e-06
lwrist -1.5255464882991133e-06 -56.30703108354752 3.6784672090697616e-07
lhand -4.562975323145072 2.6246558075710764e-07 -26.656099019086014
lfingers 7.125022823272814 9.845282338726802e-08 3.18924141240953e-07
lthumb 21.213298854421275 -1.2803152392500461e-07 2.20318914769186
rclavicle 1.398304276268298e-07 4.3880174074018323e-07 -1.3740421654916584e-06
rhumerus 39.34754501590621 -31.470339072549287 -31.938162634465552
rradius 31.366052329206944 1.6146864949124314e-06 -3.0303441574116064e-06
rwrist 3.746841246945617e-07 39.07872584564744 8.375766333695847e-07
rhand -6.972260092956778 2.0321462048512455e-07 -36.68780446630613
rfingers 7.125022396385991 5.1024341088409163e-08 -3.1892353057445414e-07
rthumb 18.897492480477187 1.5447771905696147e-06 -65.78980959509936
95
root -0.567874014377594 -0.567874014377594 -0.567874014377594 -0.5678755879732001 -0.5678755879732001 -0.5678755879732001
lhipjoint -9.671654586443837e-08 -1.5341245206083327e-07 1.0672170578144923e-06
lfemur -15.69464090128708 -3.6231272060861546 -14.17857113197603
ltibia 19.873675069486456 -8.857049903649902e-07 -4.6113147371455286e-07
lfoot -16.84146893651995 -2.6665298200631022e-06 14.061733916033791
ltoes -52.02604609670195 -2.292962629839358e-07 1.3187988313405067e-06
rhipjoint 1.1005675908711953e-07 6.870210827458292e-07 -1.494104084495789e-06
rfemur -7.00661295627418 5.964612956875375 10.645500396983316
rtibia 1.5496881738492645 6.946802146409177e-08 -1.6919050701353756e-06
rfoot -15.144093503238201 1.4677898543942316e-06 -16.457946984434564
rtoes -4.334806877505272 5.223168982326769e-07 -5.807245026253232e-07
lowerback 23.65204009568913 0.7736691876656844 -1.632401764698119
upperback 1.9087644520083518 0.6511354872339498 0.9371568090825211
thorax -11.368080623430952 0.4201385695453979 1.80349821685035
lowerneck -11.457395592112624 -2.029057957114028 -1.9248847656666397
upperneck 23.5797988923852 -3.0151462414105206 2.3060364286666197
head 9.370881229926802 -1.331763944747426 0.7745436119620046
lclavicle -1.4085775951116125e-07 5.4855408257763046e-08 -1.0938974842598547e-06
lhumerus 38.05217914924579 36.228945527675506 38.195503838789335
lradius 24.083931739929255 -8.293298876359866e-08 1.5559078088439895e-06
lwrist -1.5746225997007201e-06 -56.97491771644263 3.7967685765577333e-07
lhand -4.562975323145072 2.6246558075710764e-07 -26.656099019086014
lfingers 7.125022823272814 9.845282338726802e-08 3.18924141240953e-07
lthumb 21.213298854421275 -1.2803152392500461e-07 2.20318914769186
rclavicle 1.398304276268298e-07 4.3880174074018323e-07 -1.3740421654916584e-06
rhumerus 32.10018155176743 -32.67609968748832 -27.197531529687513
rradius 31.607516591839822 -3.384826696435822e-07 -2.71212258797757e-06
rwrist 3.847667374791756e-07 39.71349972144633 8.601178605080529e-07
rhand -6.972260092956778 2.0321462048512455e-07 -36.68780446630613
rfingers 7.125022396385991 5.1024341088409163e-08 -3.1892353057445414e-07
rthumb 18.897492480477187 1.5447771905696147e-06 -65.78980959509936
96
root -0.567874014377594 -0.567874014377594 -0.567874014377594 -0.5678755879732001 -0.5678755879732001 -0.5678755879732001
lhipjoint -9.671654586443837e-08 -1.5341245206083327e-07 1.0672170578144923e-06
lfemur -15.77492294479141 -3.5947140460257248 -14.179785198101
ltibia 20.211142763545737 -9.119235493817291e-07 4.214314339584009e-07
lfoot -17.249289286577653 1.2554621305247156e-07 14.060641085766589
ltoes -52.19681790142519 -6.390010681650931e-07 4.716547841558303e-07
rhipjoint 1.1005675908711953e-07 6.870210827458292e-07 -1.494104084495789e-06
rfemur -7.222324844415169 5.87397549281566 10.736591214849192
rtibia 2.085366036631613 7.57731785090625e-08 -2.5405841293426386e-06
rfoot -15.618207669380052 1.3462001495877508e-06 -16.026536868530926
rtoes -4.181141281558325 -3.164337414809296e-07 -4.5906436761597607e-07
lowerback 23.165923579628274 0.7928483588550801 -1.5799595722507611
upperback 1.6136181041503492 0.6959552419284264 0.9165296377890826
thorax -11.383176195270325 0.43461865062710425 1.719240896527367
lowerneck -11.457395592112624 -2.029057957114028 -1.9248847656666397
upperneck 23.5797988923852 -3.0151462414105206 2.3060364286666197
head 9.370881229926802 -1.331763944747426 0.7745436119620046
lclavicle -1.4085775951116125e-07 5.4855408257763046e-08 -1.0938974842598547e-06
lhumerus 29.7302664192185 36.660606653031145 30.75245545492968
lradius 24.44426007714057 2.1002449339138733e-08 1.1861256313578118e-06
lwrist -1.622699660710223e-06 -57.602550629464275 3.912732872465766e-07
lhand -4.562975323145072 2.6246558075710764e-07 -26.656099019086014
lfingers 7.125022823272814 9.845282338726802e-08 3.18924141240953e-07
lthumb 21.213298854421275 -1.2803152392500461e-07 2.20318914769186
rclavicle 1.398304276268298e-07 4.3880174074018323e-07 -1.3740421654916584e-06
rhumerus 24.530854922985284 -33.19061783766538 -22.541922619697786
rradius 31.936581445672697 -1.0184044490071354e-07 -3.6423125972281306e-06
rwrist 4.0264361756618393e-07 40.80021696934121 9.000810975252054e-07
rhand -6.972260092956778 2.0321462048512455e-07 -36.68780446630613
rfingers 7.125022396385991 5.1024341088409163e-08 -3.1892353057445414e-07
rthumb 18.897492480477187 1.5447771905696147e-06 -65.78980959509936
97
root -0.567874014377594 -0.567874014377594 -0.567874014377594 -0.5678755879732001 -0.5678755879732001 -0.5678755879732001
lhipjoint -9.671654586443837e-08 -1.5341245206083327e-07 1.0672170578144923e-06
lfemur -16.01895023591033 -3.5163585427541615 -14.24915430685894
ltibia 20.65400027649832 -1.087861249474311e-06 -4.833122040632053e-07
lfoot -17.562320271333924 -1.4167094337656788e-06 13.891062856600804
ltoes -52.39911102916805 -6.23992666734203e-07 -5.843754740663939e-07
rhipjoint 1.1005675908711953e-07 6.870210827458292e-07 -1.494104084495789e-06
rfemur -7.441176912027071 5.711281240559602 10.788404176119261
rtibia 2.559354271160641 1.4012816571167098e-07 -1.6804692203893302e-06
rfoot -16.074845088983132 1.658295716260914e-06 -15.700327033771115
rtoes -4.0011517096633265 -2.994636757002627e-07 -3.6351643387481975e-07
lowerback 22.812404941019462 0.7960039596124789 -1.502450372106045
upperback 1.3042515158837917 0.7336306187510696 0.9398341365154603
thorax -11.463718639736763 0.4470768889927811 1.6717984025524584
lowerneck -11.457395592112624 -2.029057957114028 -1.9248847656666397
upperneck 23.5797988923852 -3.0151462414105206 2.3060364286666197
head 9.370881229926802 -1.331763944747426 0.7745436119620046
lclavicle -1.4085775951116125e-07 5.4855408257763046e-08 -1.0938974842598547e-06
lhumerus 20.97150845025553 36.21495730025532 23.899883755006798
lradius 25.00037749445759 -5.45329254575001e-08 1.7012285226841803e-06
lwrist -1.6299004365090564e-06 -57.69434837190925 3.9300770732547224e-07
lhand -4.562975323145072 2.6246558075710764e-07 -26.656099019086014
lfingers 7.125022823272814 9.845282338726802e-08 3.18924141240953e-07
lthumb 21.213298854421275 -1.2803152392500461e-07 2.20318914769186
rclavicle 1.398304276268298e-07 4.3880174074018323e-07 -1.3740421654916584e-06
rhumerus 16.69699848274313 -33.12448453102673 -18.063160967698035
rradius 32.43484716071971 -1.0856144038695754e-07 -3.75785436280784e-06
rwrist 4.236923248926099e-07 42.01980530225493 9.471325441499048e-07
rhand -6.972260092956778 2.0321462048512455e-07 -36.68780446630613
rfingers 7.125022396385991 5.1024341088409163e-08 -3.1892353057445414e-07
rthumb 18.897492480477187 1.5447771905696147e-06 -65.78980959509936
